<svg xmlns="http://www.w3.org/2000/svg" id="Livello_1" data-name="Livello 1" width="300mm" height="200mm" viewBox="0 0 848.96 569.44">
  <defs fill="#3f51b5">
    <style>
      .cls-1 {
        fill: #f05365;
      }
    </style>
  </defs>
  <rect width="848.96" height="569.44" fill="#FABC2A"/>
  <g transform="translate(150, 150)">
  <path class="cls-1" d="M0,169.25V58.1h29.05v107.9c0,17.39,6.52,26.08,19.56,26.08,3.95,0,7.6-.89,10.97-2.67,3.36-1.78,6.22-4.15,8.6-7.11,4.74-5.93,7.11-13.14,7.11-21.64V58.1h29.05v153.84h-28.46v-17.79c-4.74,7.31-10.43,12.89-17.04,16.75-6.62,3.85-13.49,5.78-20.6,5.78-11.66,0-20.95-4.25-27.86-12.75-6.92-8.49-10.37-20.05-10.37-34.68Z" fill="#3f51b5"/>
  <path class="cls-1" d="M131.31,58.1h28.46v17.49c4.54-7.11,9.93-12.6,16.15-16.45,6.22-3.85,12.89-5.78,20.01-5.78,15.81,0,28.01,6.97,36.61,20.9,8.6,13.93,12.89,33.75,12.89,59.43s-4.5,46.44-13.49,61.06c-8.99,14.63-21.49,21.94-37.5,21.94-6.72,0-13.09-1.78-19.12-5.34-6.03-3.56-11.02-8.4-14.97-14.52v72.62h-29.05V58.1ZM214.6,134.87c0-19.96-2.22-34.53-6.67-43.72-4.45-9.19-11.51-13.78-21.19-13.78-6.92,0-12.35,2.18-16.3,6.52-3.96,4.35-6.77,10.13-8.45,17.34-1.68,7.22-2.52,15.17-2.52,23.86v19.86c0,8.89.89,16.95,2.67,24.16,1.78,7.22,4.69,13,8.74,17.34,4.05,4.35,9.34,6.52,15.86,6.52,9.68,0,16.75-4.69,21.19-14.08,4.45-9.38,6.67-24.06,6.67-44.02Z" fill="#3f51b5"/>
  <path class="cls-1" d="M264.7,0h30.23v31.12h-30.23V0ZM265.59,58.1h29.05v153.84h-29.05V58.1Z" fill="#3f51b5"/>
  <path class="cls-1" d="M314.49,135.76c0-27.07,4.89-47.57,14.67-61.51,9.78-13.93,24.16-20.9,43.13-20.9,28.85,0,45.65,17.79,50.39,53.35l-27.86,3.56c-1.38-11.66-4-20.11-7.86-25.34-3.85-5.23-9.04-7.85-15.56-7.85-9.49,0-16.3,4.55-20.45,13.64-4.15,9.09-6.22,23.91-6.22,44.46s2.12,35.38,6.37,44.46c4.25,9.09,11.21,13.64,20.9,13.64,7.31,0,12.89-2.82,16.75-8.45s6.27-14.57,7.26-26.83h27.86c-3.76,39.13-21.44,58.69-53.06,58.69-37.55,0-56.32-26.97-56.32-80.92Z" fill="#3f51b5"/>
  <path class="cls-1" d="M432.47,135.46c0-26.48,4.99-46.78,14.97-60.91,9.98-14.13,24.55-21.19,43.72-21.19,38.53,0,57.8,27.08,57.8,81.22,0,26.68-4.99,47.03-14.97,61.06-9.98,14.03-24.56,21.05-43.72,21.05-38.53,0-57.8-27.07-57.8-81.22ZM462.7,135.17c0,20.36,2.22,35.13,6.67,44.31s11.51,13.78,21.19,13.78,17.29-4.54,21.64-13.64c4.34-9.09,6.52-24.01,6.52-44.76s-2.22-35.13-6.67-44.31c-4.45-9.19-11.51-13.78-21.19-13.78s-17.29,4.59-21.64,13.78c-4.35,9.19-6.52,24.06-6.52,44.61Z" fill="#3f51b5"/>
  </g>
</svg>